<svg xmlns="http://www.w3.org/2000/svg" viewBox="0 0 302.2 246.6"><defs><style>.cls-1{fill:#2a3479;}.cls-2{fill:#669a41;}.cls-3{fill:#010101;}</style></defs><title>pacetech-logo</title><g id="Layer_1" data-name="Layer 1"><polygon class="cls-1" points="12.2 182.3 6.5 182.3 6.5 165.8 1 165.8 1 160.8 18 160.8 18 165.8 12.2 165.8 12.2 182.3"/><polygon class="cls-1" points="25.6 169.5 34.7 169.5 34.7 173.4 25.6 173.4 25.6 177.6 35.5 177.6 35.5 182.3 19.8 182.3 19.8 160.8 35.3 160.8 35.3 165.5 25.6 165.5 25.6 169.5"/><path class="cls-1" d="M69.7,184.7v.6c0,2.3,0,4.5-2,6.1s-4.3,1.6-6.8,1.6c-5.9,0-10.1-.3-10.1-8.1v-5.6c0-7.1,3.8-8.1,10.1-8.1,5.9,0,8.7.6,8.8,7v.8H63.8v-.8c-.2-1.9-1.5-2.1-3.5-2.1-3.3,0-3.6,1-3.6,4.1v3.4c0,3.2.2,4.4,3.6,4.4,2.4,0,3.5-.2,3.5-2.7v-.6Z" transform="translate(-12.4 -10.5)"/><polygon class="cls-1" points="79 182.3 73.3 182.3 73.3 173.9 65.8 173.9 65.8 182.3 60.1 182.3 60.1 160.8 65.8 160.8 65.8 168.9 73.3 168.9 73.3 160.8 79 160.8 79 182.3"/><polygon class="cls-1" points="88.3 182.3 82.5 182.3 82.5 160.8 92.2 160.8 98.4 177.3 98.6 177.3 98.3 160.8 104 160.8 104 182.3 94.2 182.3 88.1 165.8 87.9 165.8 88.3 182.3"/><path class="cls-1" d="M119.1,185.1V179c0-6.6,4.1-7.9,9.9-7.9s10,1.3,10,7.9v6.1c0,6.6-4.1,7.9-10,7.9s-9.9-1.3-9.9-7.9m14-.6v-4.9c0-3.2-1.1-3.5-4.1-3.5s-3.9.3-4,3.5v4.9c.1,3.2,1.1,3.5,4,3.5s4.1-.3,4.1-3.5" transform="translate(-12.4 -10.5)"/><polygon class="cls-1" points="134.9 177.3 143.8 177.3 143.8 182.3 129.1 182.3 129.1 160.8 134.9 160.8 134.9 177.3"/><path class="cls-1" d="M157.5,185.1V179c0-6.6,4.1-7.9,10-7.9s10,1.3,10,7.9v6.1c0,6.6-4.1,7.9-10,7.9s-10-1.3-10-7.9m14-.6v-4.9c0-3.2-1.1-3.5-4-3.5s-4,.3-4,3.5v4.9c.1,3.2,1.1,3.5,4,3.5s4-.3,4-3.5" transform="translate(-12.4 -10.5)"/><path class="cls-1" d="M193.2,178c-.1-2.2-2-2.2-3.7-2.2-4.1,0-4.2,1.3-4.3,4.7V184c0,3.8,1.3,4.2,4.3,4.2s3.7-.7,3.7-3.6h-4v-4H199v3.7c0,7.3-1.8,8.6-9.5,8.6-6.8,0-10.2-1.1-10.2-8.1v-5.6c0-7.1,3.9-8.2,10.2-8.2,5.6,0,9.5,0,9.5,6.9h-5.8Z" transform="translate(-12.4 -10.5)"/><rect class="cls-1" x="189.4" y="160.8" width="5.7" height="21.5"/><polygon class="cls-1" points="204.5 169.5 213.7 169.5 213.7 173.4 204.5 173.4 204.5 177.6 214.4 177.6 214.4 182.3 198.7 182.3 198.7 160.8 214.3 160.8 214.3 165.5 204.5 165.5 204.5 169.5"/><path class="cls-1" d="M240.3,179.7c6.4.5,7.9,1.3,7.9,6.2,0,3.6.2,7-9.3,7-5.5,0-9.1-.1-9.1-7.2h5.5c0,2.2.8,2.5,3.6,2.5s3.6-.2,3.6-2-.3-1.8-3-2l-1.3-.1c-5.3-.4-8.4-.4-8.4-6.5s3.5-6.6,9.1-6.6c4.7,0,8.7.1,8.7,6v.9h-5.5c0-2.2-.9-2.2-3.2-2.2-3.1,0-3.3.6-3.3,1.8,0,1.7.8,1.8,2.3,1.9Z" transform="translate(-12.4 -10.5)"/><rect class="cls-1" x="248.9" y="160.8" width="5.7" height="21.5"/><polygon class="cls-1" points="263.9 182.3 258.1 182.3 258.1 160.8 267.8 160.8 274 177.3 274.2 177.3 273.9 160.8 279.6 160.8 279.6 182.3 269.8 182.3 263.7 165.8 263.5 165.8 263.9 182.3"/><path class="cls-1" d="M313.6,184.7v.6c0,2.3,0,4.5-2,6.1s-4.3,1.6-6.8,1.6c-5.8,0-10.1-.3-10.1-8.1v-5.6c0-7.1,3.8-8.1,10.1-8.1,5.9,0,8.7.6,8.8,7v.8h-5.9v-.8c-.2-1.9-1.5-2.1-3.5-2.1-3.3,0-3.6,1-3.6,4.1v3.4c0,3.2.2,4.4,3.6,4.4,2.4,0,3.5-.2,3.5-2.7v-.6Z" transform="translate(-12.4 -10.5)"/><path class="cls-2" d="M170.8,244.4a107.34,107.34,0,0,1-88.1-46H63.3c21.1,35.2,58.7,58.7,101.8,58.7s80.7-23.5,101.8-58.7h-8.1a107.14,107.14,0,0,1-88,46" transform="translate(-12.4 -10.5)"/><path class="cls-2" d="M170.8,29.6a107.27,107.27,0,0,1,93.1,54h10.5c-18.7-43-60.5-73.1-109.3-73.1S74.5,40.5,55.8,83.6H77.6a107.8,107.8,0,0,1,93.2-54" transform="translate(-12.4 -10.5)"/><path class="cls-3" d="M32.9,166.3H13.2V119.5H65.5c2.7-.4,2.7-3.1,2.7-4.7,0-3-1.1-4.6-3.2-4.7H12.4V90.5H65.5c9.3.5,22.4,7.3,22.4,24.4S74.8,138.8,66,139.3H32.9Z" transform="translate(-12.4 -10.5)"/><polygon class="cls-3" points="104.9 106.6 128.7 155.3 150.6 155.3 113.6 79.4 95.8 79.5 60.7 155.3 82.4 155.3 104.9 106.6"/><rect class="cls-3" x="228.3" y="79.2" width="73.9" height="19.7"/><rect class="cls-3" x="228.3" y="107.1" width="73.9" height="19.7"/><rect class="cls-3" x="228.3" y="136.4" width="73.9" height="19.7"/><path class="cls-3" d="M235,167.1H185.5c-9.9,0-16-4.1-19.3-7.5-7.6-7.8-7.6-18.4-7.5-19.6V113.1a21.07,21.07,0,0,1,6.6-15.6c8.8-8.3,22.9-7.9,25.6-7.8h43.4v19.7H187.1c-3.9-.2-8.2,1.8-8.2,5.7,0,.3-.4.4-.4,1.3v23.8c.1,7.2,5.2,7.2,7.2,7.2H235Z" transform="translate(-12.4 -10.5)"/></g></svg>